solid ASCII
  facet normal -4.183676e-14 1.000000e+00 0.000000e+00
    outer loop
      vertex   1.000000e+03 5.000000e+03 1.000000e+03
      vertex   1.000000e+03 5.000000e+03 0.000000e+00
      vertex   -2.093259e-10 5.000000e+03 1.000000e+03
    endloop
  endfacet
  facet normal -4.183676e-14 1.000000e+00 0.000000e+00
    outer loop
      vertex   -2.093259e-10 5.000000e+03 1.000000e+03
      vertex   1.000000e+03 5.000000e+03 0.000000e+00
      vertex   -2.093259e-10 5.000000e+03 0.000000e+00
    endloop
  endfacet
  facet normal 4.206413e-14 -1.000000e+00 0.000000e+00
    outer loop
      vertex   0.000000e+00 0.000000e+00 1.000000e+03
      vertex   0.000000e+00 0.000000e+00 0.000000e+00
      vertex   1.000000e+03 4.206413e-11 1.000000e+03
    endloop
  endfacet
  facet normal 4.206413e-14 -1.000000e+00 0.000000e+00
    outer loop
      vertex   1.000000e+03 4.206413e-11 1.000000e+03
      vertex   0.000000e+00 0.000000e+00 0.000000e+00
      vertex   1.000000e+03 4.206413e-11 0.000000e+00
    endloop
  endfacet
  facet normal -1.000000e+00 -4.186518e-14 0.000000e+00
    outer loop
      vertex   -2.093259e-10 5.000000e+03 0.000000e+00
      vertex   0.000000e+00 0.000000e+00 0.000000e+00
      vertex   -2.093259e-10 5.000000e+03 1.000000e+03
    endloop
  endfacet
  facet normal -1.000000e+00 -4.186518e-14 0.000000e+00
    outer loop
      vertex   -2.093259e-10 5.000000e+03 1.000000e+03
      vertex   0.000000e+00 0.000000e+00 0.000000e+00
      vertex   0.000000e+00 0.000000e+00 1.000000e+03
    endloop
  endfacet
  facet normal 0.000000e+00 -0.000000e+00 -1.000000e+00
    outer loop
      vertex   1.000000e+03 5.000000e+03 0.000000e+00
      vertex   1.000000e+03 4.206413e-11 0.000000e+00
      vertex   -2.093259e-10 5.000000e+03 0.000000e+00
    endloop
  endfacet
  facet normal 0.000000e+00 0.000000e+00 -1.000000e+00
    outer loop
      vertex   -2.093259e-10 5.000000e+03 0.000000e+00
      vertex   1.000000e+03 4.206413e-11 0.000000e+00
      vertex   0.000000e+00 0.000000e+00 0.000000e+00
    endloop
  endfacet
  facet normal 1.000000e+00 4.185949e-14 0.000000e+00
    outer loop
      vertex   1.000000e+03 5.000000e+03 1.000000e+03
      vertex   1.000000e+03 4.206413e-11 1.000000e+03
      vertex   1.000000e+03 5.000000e+03 0.000000e+00
    endloop
  endfacet
  facet normal 1.000000e+00 4.185949e-14 0.000000e+00
    outer loop
      vertex   1.000000e+03 5.000000e+03 0.000000e+00
      vertex   1.000000e+03 4.206413e-11 1.000000e+03
      vertex   1.000000e+03 4.206413e-11 0.000000e+00
    endloop
  endfacet
  facet normal -0.000000e+00 0.000000e+00 1.000000e+00
    outer loop
      vertex   -2.093259e-10 5.000000e+03 1.000000e+03
      vertex   0.000000e+00 0.000000e+00 1.000000e+03
      vertex   1.000000e+03 5.000000e+03 1.000000e+03
    endloop
  endfacet
  facet normal 0.000000e+00 0.000000e+00 1.000000e+00
    outer loop
      vertex   1.000000e+03 5.000000e+03 1.000000e+03
      vertex   0.000000e+00 0.000000e+00 1.000000e+03
      vertex   1.000000e+03 4.206413e-11 1.000000e+03
    endloop
  endfacet
endsolid
